<svg width="260" height="180" viewBox="0 0 260 180" fill="none" xmlns="http://www.w3.org/2000/svg">
  <g stroke="#FF9A5C" stroke-width="2" stroke-linecap="round" stroke-linejoin="round" opacity="0.78">
    <path d="M158 56h66c8 0 14 6 14 14v34c0 20-16 36-36 36h-22c-20 0-36-16-36-36V70c0-8 6-14 14-14Z"/>
    <path d="M152 56c6-15 24-24 42-24s36 9 42 24"/>
    <path d="M178 32c2-9 10-15 18-15s16 6 18 15"/>
    <path d="M178 32h36"/>
    <path d="M238 76h8c9 0 16 7 16 16s-7 16-16 16h-8"/>
    <path d="M144 76h-8c-9 0-16 7-16 16s7 16 16 16h8"/>
    <path d="M170 68h42"/>
    <path d="M160 132c10 7 22 10 36 10s26-3 36-10"/>

    <path d="M60 70 22 32"/>
    <path d="M28 26 16 38c-6 6-6 15 0 21l17 17c6 6 15 6 21 0l12-12"/>
    <path d="M22 32 54 64"/>
    <path d="M32 22 64 54"/>
    <path d="M42 16 74 48"/>
    <path d="M68 78 94 104"/>
    <path d="M91 101c4 4 4 10 0 14s-10 4-14 0"/>

    <path d="M91 34c13-17 13-26 0-42"/>
    <path d="M91 34c-18-10-28-20-30-38"/>
    <path d="M91 34c-19-1-32 4-40 16"/>
    <path d="M80 17c-8-5-14-10-18-17"/>
    <path d="M78 34c-9 0-17 3-24 8"/>

    <path d="M120 142c-4-13 3-28 18-34 15 6 22 21 18 34-4 13-14 20-18 20s-14-7-18-20Z"/>
    <path d="M138 108c-1-9 2-15 10-19"/>
    <path d="M138 108c5-6 12-8 20-5"/>
    <path d="M122 126c10-4 21-4 32 0"/>

    <path d="M220 16c3 0 3 4 0 4s-3-4 0-4Z"/>
    <path d="M236 28c3 0 3 4 0 4s-3-4 0-4Z"/>
    <path d="M102 62c3 0 3 4 0 4s-3-4 0-4Z"/>
    <path d="M114 76c3 0 3 4 0 4s-3-4 0-4Z"/>
    <path d="M232 150c9 0 18-2 28-8"/>
  </g>
</svg>
